<mxfile host="app.diagrams.net" modified="2024-04-25T08:24:16.166Z" agent="Mozilla/5.0 (X11; Ubuntu; Linux x86_64; rv:125.0) Gecko/20100101 Firefox/125.0" etag="nJogAt3OeVgwGu0YNhR2" version="24.2.5" type="github" pages="2">
  <diagram name="Architecture" id="weCbRElP3O2KVyakuJCG">
    <mxGraphModel dx="2261" dy="822" grid="1" gridSize="10" guides="1" tooltips="1" connect="1" arrows="1" fold="1" page="1" pageScale="1" pageWidth="827" pageHeight="1169" math="0" shadow="0">
      <root>
        <mxCell id="0" />
        <mxCell id="1" parent="0" />
        <mxCell id="Q-kCUEfph_g4pfL4G4G4-3" value="" style="edgeStyle=orthogonalEdgeStyle;rounded=0;orthogonalLoop=1;jettySize=auto;html=1;exitX=0.5;exitY=1;exitDx=0;exitDy=0;" parent="1" source="Q-kCUEfph_g4pfL4G4G4-1" target="Q-kCUEfph_g4pfL4G4G4-2" edge="1">
          <mxGeometry relative="1" as="geometry" />
        </mxCell>
        <mxCell id="Q-kCUEfph_g4pfL4G4G4-8" value="" style="edgeStyle=orthogonalEdgeStyle;rounded=0;orthogonalLoop=1;jettySize=auto;html=1;entryX=0.5;entryY=0;entryDx=0;entryDy=0;" parent="1" source="Q-kCUEfph_g4pfL4G4G4-1" target="Q-kCUEfph_g4pfL4G4G4-7" edge="1">
          <mxGeometry relative="1" as="geometry">
            <mxPoint x="530" y="679.9999999999998" as="targetPoint" />
          </mxGeometry>
        </mxCell>
        <mxCell id="Q-kCUEfph_g4pfL4G4G4-25" value="" style="edgeStyle=orthogonalEdgeStyle;rounded=0;orthogonalLoop=1;jettySize=auto;html=1;exitX=0.003;exitY=0.269;exitDx=0;exitDy=0;fillColor=#d5e8d4;strokeColor=#82b366;exitPerimeter=0;" parent="1" source="Q-kCUEfph_g4pfL4G4G4-1" target="Q-kCUEfph_g4pfL4G4G4-24" edge="1">
          <mxGeometry relative="1" as="geometry" />
        </mxCell>
        <mxCell id="Q-kCUEfph_g4pfL4G4G4-31" style="edgeStyle=orthogonalEdgeStyle;rounded=0;orthogonalLoop=1;jettySize=auto;html=1;entryX=0.75;entryY=1;entryDx=0;entryDy=0;fillColor=#ffe6cc;strokeColor=#d79b00;" parent="1" source="Q-kCUEfph_g4pfL4G4G4-1" target="Q-kCUEfph_g4pfL4G4G4-30" edge="1">
          <mxGeometry relative="1" as="geometry">
            <Array as="points">
              <mxPoint x="580" y="420" />
              <mxPoint x="640" y="420" />
              <mxPoint x="640" y="280" />
              <mxPoint x="410" y="280" />
            </Array>
          </mxGeometry>
        </mxCell>
        <mxCell id="Q-kCUEfph_g4pfL4G4G4-1" value="Controller" style="rounded=0;whiteSpace=wrap;html=1;" parent="1" vertex="1">
          <mxGeometry x="230" y="460" width="360" height="60" as="geometry" />
        </mxCell>
        <mxCell id="Q-kCUEfph_g4pfL4G4G4-23" style="edgeStyle=orthogonalEdgeStyle;rounded=0;orthogonalLoop=1;jettySize=auto;html=1;exitX=0.25;exitY=0;exitDx=0;exitDy=0;entryX=0.067;entryY=1.05;entryDx=0;entryDy=0;fillColor=#d5e8d4;strokeColor=#82b366;entryPerimeter=0;" parent="1" source="Q-kCUEfph_g4pfL4G4G4-2" target="Q-kCUEfph_g4pfL4G4G4-1" edge="1">
          <mxGeometry relative="1" as="geometry">
            <Array as="points">
              <mxPoint x="170" y="550" />
              <mxPoint x="254" y="550" />
            </Array>
          </mxGeometry>
        </mxCell>
        <mxCell id="Q-kCUEfph_g4pfL4G4G4-2" value="Assistant" style="rounded=0;whiteSpace=wrap;html=1;" parent="1" vertex="1">
          <mxGeometry x="140" y="700" width="120" height="60" as="geometry" />
        </mxCell>
        <mxCell id="Q-kCUEfph_g4pfL4G4G4-7" value="Workers" style="rounded=0;whiteSpace=wrap;html=1;" parent="1" vertex="1">
          <mxGeometry x="550" y="700" width="120" height="60" as="geometry" />
        </mxCell>
        <mxCell id="Q-kCUEfph_g4pfL4G4G4-19" style="edgeStyle=orthogonalEdgeStyle;rounded=0;orthogonalLoop=1;jettySize=auto;html=1;entryX=0.75;entryY=1;entryDx=0;entryDy=0;fillColor=#ffe6cc;strokeColor=#d79b00;" parent="1" edge="1">
          <mxGeometry relative="1" as="geometry">
            <mxPoint x="580.04347826087" y="460" as="sourcePoint" />
            <mxPoint x="581" y="240" as="targetPoint" />
            <Array as="points">
              <mxPoint x="580" y="420" />
              <mxPoint x="640" y="420" />
              <mxPoint x="640" y="280" />
              <mxPoint x="581" y="280" />
            </Array>
          </mxGeometry>
        </mxCell>
        <mxCell id="Q-kCUEfph_g4pfL4G4G4-21" style="edgeStyle=orthogonalEdgeStyle;rounded=0;orthogonalLoop=1;jettySize=auto;html=1;exitX=0.5;exitY=1;exitDx=0;exitDy=0;entryX=0.5;entryY=0;entryDx=0;entryDy=0;" parent="1" source="Q-kCUEfph_g4pfL4G4G4-9" target="Q-kCUEfph_g4pfL4G4G4-1" edge="1">
          <mxGeometry relative="1" as="geometry" />
        </mxCell>
        <mxCell id="Q-kCUEfph_g4pfL4G4G4-9" value="Speech-to-text" style="rounded=0;whiteSpace=wrap;html=1;" parent="1" vertex="1">
          <mxGeometry x="480" y="320" width="120" height="60" as="geometry" />
        </mxCell>
        <mxCell id="Q-kCUEfph_g4pfL4G4G4-20" value="" style="edgeStyle=orthogonalEdgeStyle;rounded=0;orthogonalLoop=1;jettySize=auto;html=1;fillColor=#ffe6cc;strokeColor=#d79b00;" parent="1" source="Q-kCUEfph_g4pfL4G4G4-11" target="Q-kCUEfph_g4pfL4G4G4-1" edge="1">
          <mxGeometry relative="1" as="geometry" />
        </mxCell>
        <mxCell id="Q-kCUEfph_g4pfL4G4G4-11" value="Input (button)&amp;nbsp;" style="rounded=0;whiteSpace=wrap;html=1;" parent="1" vertex="1">
          <mxGeometry x="690" y="460" width="120" height="60" as="geometry" />
        </mxCell>
        <mxCell id="Q-kCUEfph_g4pfL4G4G4-18" value="" style="edgeStyle=orthogonalEdgeStyle;rounded=0;orthogonalLoop=1;jettySize=auto;html=1;" parent="1" source="Q-kCUEfph_g4pfL4G4G4-15" target="Q-kCUEfph_g4pfL4G4G4-9" edge="1">
          <mxGeometry relative="1" as="geometry" />
        </mxCell>
        <mxCell id="Q-kCUEfph_g4pfL4G4G4-15" value="Input (voice)" style="rounded=0;whiteSpace=wrap;html=1;" parent="1" vertex="1">
          <mxGeometry x="450" y="180" width="180" height="60" as="geometry" />
        </mxCell>
        <mxCell id="Q-kCUEfph_g4pfL4G4G4-27" value="" style="edgeStyle=orthogonalEdgeStyle;rounded=0;orthogonalLoop=1;jettySize=auto;html=1;" parent="1" source="Q-kCUEfph_g4pfL4G4G4-24" target="Q-kCUEfph_g4pfL4G4G4-26" edge="1">
          <mxGeometry relative="1" as="geometry" />
        </mxCell>
        <mxCell id="Q-kCUEfph_g4pfL4G4G4-24" value="Text-to-speech" style="rounded=0;whiteSpace=wrap;html=1;" parent="1" vertex="1">
          <mxGeometry x="-100" y="420" width="120" height="60" as="geometry" />
        </mxCell>
        <mxCell id="Q-kCUEfph_g4pfL4G4G4-26" value="Output (sound)" style="rounded=0;whiteSpace=wrap;html=1;" parent="1" vertex="1">
          <mxGeometry x="-300" y="420" width="120" height="60" as="geometry" />
        </mxCell>
        <mxCell id="Q-kCUEfph_g4pfL4G4G4-29" style="edgeStyle=orthogonalEdgeStyle;rounded=0;orthogonalLoop=1;jettySize=auto;html=1;exitX=0.5;exitY=1;exitDx=0;exitDy=0;" parent="1" source="Q-kCUEfph_g4pfL4G4G4-28" edge="1">
          <mxGeometry relative="1" as="geometry">
            <mxPoint x="410" y="460" as="targetPoint" />
            <Array as="points">
              <mxPoint x="120" y="420" />
              <mxPoint x="410" y="420" />
            </Array>
          </mxGeometry>
        </mxCell>
        <mxCell id="Q-kCUEfph_g4pfL4G4G4-28" value="Input (text)" style="rounded=0;whiteSpace=wrap;html=1;" parent="1" vertex="1">
          <mxGeometry x="60" y="180" width="120" height="60" as="geometry" />
        </mxCell>
        <mxCell id="Q-kCUEfph_g4pfL4G4G4-32" style="edgeStyle=orthogonalEdgeStyle;rounded=0;orthogonalLoop=1;jettySize=auto;html=1;entryX=0.5;entryY=0;entryDx=0;entryDy=0;" parent="1" source="Q-kCUEfph_g4pfL4G4G4-30" target="Q-kCUEfph_g4pfL4G4G4-1" edge="1">
          <mxGeometry relative="1" as="geometry">
            <Array as="points">
              <mxPoint x="380" y="420" />
              <mxPoint x="410" y="420" />
            </Array>
          </mxGeometry>
        </mxCell>
        <mxCell id="Q-kCUEfph_g4pfL4G4G4-30" value="Input (Gesture recognition)" style="rounded=0;whiteSpace=wrap;html=1;" parent="1" vertex="1">
          <mxGeometry x="320" y="180" width="120" height="60" as="geometry" />
        </mxCell>
        <mxCell id="Q-kCUEfph_g4pfL4G4G4-34" style="edgeStyle=orthogonalEdgeStyle;rounded=0;orthogonalLoop=1;jettySize=auto;html=1;entryX=0.5;entryY=0;entryDx=0;entryDy=0;" parent="1" source="Q-kCUEfph_g4pfL4G4G4-33" target="Q-kCUEfph_g4pfL4G4G4-1" edge="1">
          <mxGeometry relative="1" as="geometry">
            <Array as="points">
              <mxPoint x="250" y="420" />
              <mxPoint x="410" y="420" />
            </Array>
          </mxGeometry>
        </mxCell>
        <mxCell id="Q-kCUEfph_g4pfL4G4G4-33" value="Input (Image)" style="rounded=0;whiteSpace=wrap;html=1;" parent="1" vertex="1">
          <mxGeometry x="190" y="180" width="120" height="60" as="geometry" />
        </mxCell>
        <mxCell id="vndKmK9PBXvOXKm2km5d-2" value="" style="edgeStyle=orthogonalEdgeStyle;rounded=0;orthogonalLoop=1;jettySize=auto;html=1;exitX=0.003;exitY=0.269;exitDx=0;exitDy=0;fillColor=#d5e8d4;strokeColor=#82b366;exitPerimeter=0;entryX=1;entryY=0.5;entryDx=0;entryDy=0;" parent="1" target="vndKmK9PBXvOXKm2km5d-3" edge="1">
          <mxGeometry relative="1" as="geometry">
            <mxPoint x="231" y="496" as="sourcePoint" />
            <mxPoint x="20" y="470" as="targetPoint" />
          </mxGeometry>
        </mxCell>
        <mxCell id="vndKmK9PBXvOXKm2km5d-3" value="&lt;div&gt;Output&lt;/div&gt;&lt;div&gt;(Text or image)&lt;br&gt;&lt;/div&gt;" style="rounded=0;whiteSpace=wrap;html=1;" parent="1" vertex="1">
          <mxGeometry x="-100" y="490" width="120" height="60" as="geometry" />
        </mxCell>
      </root>
    </mxGraphModel>
  </diagram>
  <diagram id="I6PpJW-rzJho2QqhsKAE" name="Microservices">
    <mxGraphModel dx="2022" dy="685" grid="1" gridSize="10" guides="1" tooltips="1" connect="1" arrows="1" fold="1" page="1" pageScale="1" pageWidth="827" pageHeight="1169" math="0" shadow="0">
      <root>
        <mxCell id="0" />
        <mxCell id="1" parent="0" />
        <mxCell id="NEArfKC3kljCvPWRUVQe-15" value="" style="rounded=0;orthogonalLoop=1;jettySize=auto;html=1;startArrow=classic;startFill=1;endArrow=none;endFill=0;" parent="1" source="NEArfKC3kljCvPWRUVQe-2" target="NEArfKC3kljCvPWRUVQe-14" edge="1">
          <mxGeometry relative="1" as="geometry" />
        </mxCell>
        <mxCell id="NEArfKC3kljCvPWRUVQe-2" value="Text-to-speech" style="whiteSpace=wrap;html=1;rounded=0;" parent="1" vertex="1">
          <mxGeometry x="414" y="40" width="120" height="60" as="geometry" />
        </mxCell>
        <mxCell id="NEArfKC3kljCvPWRUVQe-13" value="" style="rounded=0;orthogonalLoop=1;jettySize=auto;html=1;startArrow=classic;startFill=1;endArrow=none;endFill=0;" parent="1" source="NEArfKC3kljCvPWRUVQe-5" target="NEArfKC3kljCvPWRUVQe-12" edge="1">
          <mxGeometry relative="1" as="geometry" />
        </mxCell>
        <mxCell id="NEArfKC3kljCvPWRUVQe-5" value="Speech-to-text" style="whiteSpace=wrap;html=1;rounded=0;" parent="1" vertex="1">
          <mxGeometry x="414" y="150" width="120" height="60" as="geometry" />
        </mxCell>
        <mxCell id="NEArfKC3kljCvPWRUVQe-10" value="" style="rounded=0;orthogonalLoop=1;jettySize=auto;html=1;startArrow=classic;startFill=1;endArrow=none;endFill=0;" parent="1" source="NEArfKC3kljCvPWRUVQe-6" target="NEArfKC3kljCvPWRUVQe-9" edge="1">
          <mxGeometry relative="1" as="geometry" />
        </mxCell>
        <mxCell id="NEArfKC3kljCvPWRUVQe-25" style="rounded=0;orthogonalLoop=1;jettySize=auto;html=1;exitX=1;exitY=0.5;exitDx=0;exitDy=0;startArrow=classic;startFill=1;endArrow=none;endFill=0;" parent="1" source="NEArfKC3kljCvPWRUVQe-6" target="NEArfKC3kljCvPWRUVQe-17" edge="1">
          <mxGeometry relative="1" as="geometry" />
        </mxCell>
        <mxCell id="NEArfKC3kljCvPWRUVQe-6" value="Assistant" style="whiteSpace=wrap;html=1;rounded=0;" parent="1" vertex="1">
          <mxGeometry x="414" y="290" width="120" height="60" as="geometry" />
        </mxCell>
        <mxCell id="NEArfKC3kljCvPWRUVQe-7" value="Vision" style="whiteSpace=wrap;html=1;rounded=0;" parent="1" vertex="1">
          <mxGeometry x="414" y="435" width="120" height="60" as="geometry" />
        </mxCell>
        <mxCell id="NEArfKC3kljCvPWRUVQe-29" value="" style="edgeStyle=orthogonalEdgeStyle;rounded=0;orthogonalLoop=1;jettySize=auto;html=1;endArrow=none;endFill=0;startArrow=classic;startFill=1;" parent="1" source="NEArfKC3kljCvPWRUVQe-8" target="NEArfKC3kljCvPWRUVQe-28" edge="1">
          <mxGeometry relative="1" as="geometry" />
        </mxCell>
        <mxCell id="NEArfKC3kljCvPWRUVQe-8" value="RT Translate" style="whiteSpace=wrap;html=1;rounded=0;" parent="1" vertex="1">
          <mxGeometry x="414" y="550" width="120" height="60" as="geometry" />
        </mxCell>
        <mxCell id="NEArfKC3kljCvPWRUVQe-9" value="GPT-4 Assistant" style="whiteSpace=wrap;html=1;rounded=0;" parent="1" vertex="1">
          <mxGeometry x="610" y="250" width="120" height="60" as="geometry" />
        </mxCell>
        <mxCell id="NEArfKC3kljCvPWRUVQe-12" value="OpenAI Whisper" style="whiteSpace=wrap;html=1;rounded=0;" parent="1" vertex="1">
          <mxGeometry x="614" y="150" width="120" height="60" as="geometry" />
        </mxCell>
        <mxCell id="NEArfKC3kljCvPWRUVQe-14" value="OpenAI TTS" style="whiteSpace=wrap;html=1;rounded=0;" parent="1" vertex="1">
          <mxGeometry x="614" y="40" width="120" height="60" as="geometry" />
        </mxCell>
        <mxCell id="NEArfKC3kljCvPWRUVQe-17" value="Archive DB" style="shape=cylinder3;whiteSpace=wrap;html=1;boundedLbl=1;backgroundOutline=1;size=15;" parent="1" vertex="1">
          <mxGeometry x="640" y="320" width="60" height="90" as="geometry" />
        </mxCell>
        <mxCell id="NEArfKC3kljCvPWRUVQe-20" style="rounded=0;orthogonalLoop=1;jettySize=auto;html=1;entryX=0;entryY=0.5;entryDx=0;entryDy=0;endArrow=classic;endFill=1;startArrow=classic;startFill=1;" parent="1" source="NEArfKC3kljCvPWRUVQe-18" target="NEArfKC3kljCvPWRUVQe-2" edge="1">
          <mxGeometry relative="1" as="geometry" />
        </mxCell>
        <mxCell id="NEArfKC3kljCvPWRUVQe-21" style="rounded=0;orthogonalLoop=1;jettySize=auto;html=1;entryX=0;entryY=0.5;entryDx=0;entryDy=0;endArrow=classic;endFill=1;startArrow=classic;startFill=1;" parent="1" source="NEArfKC3kljCvPWRUVQe-18" target="NEArfKC3kljCvPWRUVQe-5" edge="1">
          <mxGeometry relative="1" as="geometry" />
        </mxCell>
        <mxCell id="NEArfKC3kljCvPWRUVQe-22" style="rounded=0;orthogonalLoop=1;jettySize=auto;html=1;entryX=0;entryY=0.5;entryDx=0;entryDy=0;endArrow=classic;endFill=1;startArrow=classic;startFill=1;" parent="1" source="NEArfKC3kljCvPWRUVQe-18" target="NEArfKC3kljCvPWRUVQe-6" edge="1">
          <mxGeometry relative="1" as="geometry" />
        </mxCell>
        <mxCell id="NEArfKC3kljCvPWRUVQe-23" style="rounded=0;orthogonalLoop=1;jettySize=auto;html=1;entryX=0;entryY=0.5;entryDx=0;entryDy=0;endArrow=classic;endFill=1;startArrow=classic;startFill=1;" parent="1" source="NEArfKC3kljCvPWRUVQe-18" target="NEArfKC3kljCvPWRUVQe-7" edge="1">
          <mxGeometry relative="1" as="geometry" />
        </mxCell>
        <mxCell id="NEArfKC3kljCvPWRUVQe-24" style="rounded=0;orthogonalLoop=1;jettySize=auto;html=1;entryX=0;entryY=0.5;entryDx=0;entryDy=0;endArrow=classic;endFill=1;startArrow=classic;startFill=1;" parent="1" source="NEArfKC3kljCvPWRUVQe-18" target="NEArfKC3kljCvPWRUVQe-8" edge="1">
          <mxGeometry relative="1" as="geometry" />
        </mxCell>
        <mxCell id="NEArfKC3kljCvPWRUVQe-18" value="&lt;div&gt;&lt;span style=&quot;color: rgb(0, 0, 0); font-family: Helvetica; font-size: 12px; font-style: normal; font-variant-ligatures: normal; font-variant-caps: normal; font-weight: 400; letter-spacing: normal; orphans: 2; text-align: center; text-indent: 0px; text-transform: none; widows: 2; word-spacing: 0px; -webkit-text-stroke-width: 0px; background-color: rgb(251, 251, 251); text-decoration-thickness: initial; text-decoration-style: initial; text-decoration-color: initial; float: none; display: inline !important;&quot;&gt;Reverse Proxy&lt;/span&gt;&lt;/div&gt;&lt;div&gt;&lt;span style=&quot;color: rgb(0, 0, 0); font-family: Helvetica; font-size: 12px; font-style: normal; font-variant-ligatures: normal; font-variant-caps: normal; font-weight: 400; letter-spacing: normal; orphans: 2; text-align: center; text-indent: 0px; text-transform: none; widows: 2; word-spacing: 0px; -webkit-text-stroke-width: 0px; background-color: rgb(251, 251, 251); text-decoration-thickness: initial; text-decoration-style: initial; text-decoration-color: initial; float: none; display: inline !important;&quot;&gt;&lt;/span&gt;&lt;/div&gt;" style="sketch=0;outlineConnect=0;fontColor=#232F3E;gradientColor=none;fillColor=#232F3D;strokeColor=none;dashed=0;verticalLabelPosition=bottom;verticalAlign=top;align=center;html=1;fontSize=12;fontStyle=0;aspect=fixed;pointerEvents=1;shape=mxgraph.aws4.traditional_server;" parent="1" vertex="1">
          <mxGeometry x="150" y="350" width="150" height="100" as="geometry" />
        </mxCell>
        <mxCell id="NEArfKC3kljCvPWRUVQe-27" value="" style="edgeStyle=orthogonalEdgeStyle;rounded=0;orthogonalLoop=1;jettySize=auto;html=1;" parent="1" source="NEArfKC3kljCvPWRUVQe-26" target="NEArfKC3kljCvPWRUVQe-7" edge="1">
          <mxGeometry relative="1" as="geometry" />
        </mxCell>
        <mxCell id="NEArfKC3kljCvPWRUVQe-26" value="OpenAI Vision" style="whiteSpace=wrap;html=1;rounded=0;" parent="1" vertex="1">
          <mxGeometry x="614" y="435" width="120" height="60" as="geometry" />
        </mxCell>
        <mxCell id="NEArfKC3kljCvPWRUVQe-28" value="Libre Translate API" style="whiteSpace=wrap;html=1;rounded=0;" parent="1" vertex="1">
          <mxGeometry x="614" y="550" width="120" height="60" as="geometry" />
        </mxCell>
        <mxCell id="mLyEtzz-noNhWUFSBP-e-4" value="" style="edgeStyle=orthogonalEdgeStyle;rounded=0;orthogonalLoop=1;jettySize=auto;html=1;endArrow=none;endFill=0;startArrow=classic;startFill=1;" parent="1" source="mLyEtzz-noNhWUFSBP-e-1" target="mLyEtzz-noNhWUFSBP-e-3" edge="1">
          <mxGeometry relative="1" as="geometry" />
        </mxCell>
        <mxCell id="mLyEtzz-noNhWUFSBP-e-1" value="Gesture Recognition" style="whiteSpace=wrap;html=1;rounded=0;" parent="1" vertex="1">
          <mxGeometry x="414" y="650" width="120" height="60" as="geometry" />
        </mxCell>
        <mxCell id="mLyEtzz-noNhWUFSBP-e-2" style="rounded=0;orthogonalLoop=1;jettySize=auto;html=1;endArrow=classic;endFill=1;entryX=0;entryY=0.5;entryDx=0;entryDy=0;startArrow=classic;startFill=1;" parent="1" source="NEArfKC3kljCvPWRUVQe-18" target="mLyEtzz-noNhWUFSBP-e-1" edge="1">
          <mxGeometry relative="1" as="geometry">
            <mxPoint x="221" y="380" as="sourcePoint" />
            <mxPoint x="410" y="660" as="targetPoint" />
          </mxGeometry>
        </mxCell>
        <mxCell id="mLyEtzz-noNhWUFSBP-e-3" value="MediaPipe" style="whiteSpace=wrap;html=1;rounded=0;" parent="1" vertex="1">
          <mxGeometry x="614" y="650" width="120" height="60" as="geometry" />
        </mxCell>
        <mxCell id="naRzhfJ99ggFdCYeWg2g-1" style="rounded=0;orthogonalLoop=1;jettySize=auto;html=1;endArrow=classic;endFill=1;entryX=0;entryY=0.5;entryDx=0;entryDy=0;startArrow=classic;startFill=1;" parent="1" target="naRzhfJ99ggFdCYeWg2g-2" edge="1" source="NEArfKC3kljCvPWRUVQe-18">
          <mxGeometry relative="1" as="geometry">
            <mxPoint x="220" y="300" as="sourcePoint" />
            <mxPoint x="410" y="760" as="targetPoint" />
          </mxGeometry>
        </mxCell>
        <mxCell id="naRzhfJ99ggFdCYeWg2g-2" value="&lt;div&gt;Authentication&lt;/div&gt;&lt;div&gt;(Speaker recognition, face recognition, password)&lt;br&gt;&lt;/div&gt;" style="whiteSpace=wrap;html=1;rounded=0;" parent="1" vertex="1">
          <mxGeometry x="414" y="780" width="120" height="60" as="geometry" />
        </mxCell>
        <mxCell id="naRzhfJ99ggFdCYeWg2g-6" style="rounded=0;orthogonalLoop=1;jettySize=auto;html=1;exitX=0;exitY=0.5;exitDx=0;exitDy=0;entryX=1;entryY=0.25;entryDx=0;entryDy=0;" parent="1" source="naRzhfJ99ggFdCYeWg2g-3" target="naRzhfJ99ggFdCYeWg2g-2" edge="1">
          <mxGeometry relative="1" as="geometry" />
        </mxCell>
        <mxCell id="naRzhfJ99ggFdCYeWg2g-3" value="&lt;div&gt;MongoDB&lt;/div&gt;" style="whiteSpace=wrap;html=1;rounded=0;" parent="1" vertex="1">
          <mxGeometry x="610" y="740" width="120" height="60" as="geometry" />
        </mxCell>
        <mxCell id="naRzhfJ99ggFdCYeWg2g-7" value="" style="rounded=0;orthogonalLoop=1;jettySize=auto;html=1;" parent="1" source="naRzhfJ99ggFdCYeWg2g-4" target="naRzhfJ99ggFdCYeWg2g-2" edge="1">
          <mxGeometry relative="1" as="geometry" />
        </mxCell>
        <mxCell id="naRzhfJ99ggFdCYeWg2g-4" value="JWT" style="whiteSpace=wrap;html=1;rounded=0;" parent="1" vertex="1">
          <mxGeometry x="610" y="830" width="120" height="60" as="geometry" />
        </mxCell>
        <mxCell id="G58ncaDeOPv-OwQpkWaZ-6" value="" style="edgeStyle=orthogonalEdgeStyle;rounded=0;orthogonalLoop=1;jettySize=auto;html=1;exitX=0.917;exitY=0.363;exitDx=0;exitDy=0;exitPerimeter=0;" edge="1" parent="1" source="G58ncaDeOPv-OwQpkWaZ-5" target="NEArfKC3kljCvPWRUVQe-18">
          <mxGeometry relative="1" as="geometry">
            <Array as="points">
              <mxPoint x="170" y="390" />
              <mxPoint x="170" y="390" />
            </Array>
          </mxGeometry>
        </mxCell>
        <mxCell id="G58ncaDeOPv-OwQpkWaZ-7" style="edgeStyle=orthogonalEdgeStyle;rounded=0;orthogonalLoop=1;jettySize=auto;html=1;exitX=0.96;exitY=0.7;exitDx=0;exitDy=0;exitPerimeter=0;startArrow=classic;startFill=1;endArrow=none;endFill=0;" edge="1" parent="1" source="G58ncaDeOPv-OwQpkWaZ-5" target="NEArfKC3kljCvPWRUVQe-18">
          <mxGeometry relative="1" as="geometry">
            <Array as="points">
              <mxPoint x="150" y="416" />
              <mxPoint x="150" y="416" />
            </Array>
          </mxGeometry>
        </mxCell>
        <mxCell id="G58ncaDeOPv-OwQpkWaZ-5" value="&lt;div&gt;API Gateway&lt;/div&gt;" style="ellipse;shape=cloud;whiteSpace=wrap;html=1;" vertex="1" parent="1">
          <mxGeometry x="-30" y="360" width="120" height="80" as="geometry" />
        </mxCell>
      </root>
    </mxGraphModel>
  </diagram>
</mxfile>
